# xmcd
#
# Track frame offsets:
#       150
#       14462
#       28307
#       40981
#       55859
#       70169
#       76146
#       87409
#       102250
#       112263
#       116704
#       130160
#
# Disc length: 1889 seconds
#
# Revision: 2
# Processed by: cddbd v1.4PL0 Copyright (c) Steve Scherf et al.
# Submitted via: WhereIsIt 3.51
#
DISCID=a4075f0c
DTITLE=Various Artist - Nothing But the Blues: Disc 05
DYEAR=1900
DGENRE=
TTITLE0=Roberta
TTITLE1=Where did you sleep last night
TTITLE2=Pretty flower in your backyardTrack  3
TTITLE3=In New Orleans
TTITLE4=Yellow Gal
TTITLE5=Big fat woman
TTITLE6=I've got a pretty flower
TTITLE7=John Hardy
TTITLE8=How Long
TTITLE9=Line Em
TTITLE10=When the boys were on three western plains
TTITLE11=Goodnight Irene
EXTD=
EXTT0=
EXTT1=
EXTT2=
EXTT3=
EXTT4=
EXTT5=
EXTT6=
EXTT7=
EXTT8=
EXTT9=
EXTT10=
EXTT11=
PLAYORDER=
